<?xml version="1.0" encoding="UTF-8"?>
<svg width="1500px" height="1500px" viewBox="0 0 1500 1500" version="1.1" xmlns="http://www.w3.org/2000/svg" xmlns:xlink="http://www.w3.org/1999/xlink">
    <!-- Generator: Sketch 51.2 (57519) - http://www.bohemiancoding.com/sketch -->
    <title>noun_chat_2587219</title>
    <desc>Created with Sketch.</desc>
    <defs></defs>
    <g id="Page-1" stroke="none" stroke-width="1" fill="none" fill-rule="evenodd">
        <g id="noun_chat_2587219" fill="#FFFFFF">
            <path d="M750,0 C339.622642,0 0,339.622642 0,750 L2.84217094e-14,1400 C-8.74466021e-14,1455.22847 44.771525,1500 100,1500 L750,1500 C1160.37736,1500 1500,1160.37736 1500,750 C1500,339.622642 1160.37736,0 750,0 Z M1132.07547,658.018868 C1181.60377,658.018868 1224.0566,700.471698 1224.0566,750 C1224.0566,799.528302 1181.60377,834.90566 1132.07547,834.90566 C1082.54717,834.90566 1047.16981,799.528302 1047.16981,750 C1047.16981,700.471698 1082.54717,658.018868 1132.07547,658.018868 Z M750,658.018868 C799.528302,658.018868 834.90566,700.471698 834.90566,750 C834.90566,799.528302 799.528302,834.90566 750,834.90566 C700.471698,834.90566 658.018868,799.528302 658.018868,750 C658.018868,700.471698 700.471698,658.018868 750,658.018868 Z M360.849057,658.018868 C410.377358,658.018868 452.830189,700.471698 452.830189,750 C452.830189,799.528302 410.377358,834.90566 360.849057,834.90566 C318.396226,834.90566 275.943396,799.528302 275.943396,750 C275.943396,700.471698 318.396226,658.018868 360.849057,658.018868 Z" id="Shape"></path>
        </g>
    </g>
</svg>